# This file uses centimeters as units for non-parametric coordinates.

mtllib 01_test_scene.mtl
g default
v 15.324243 0.296558 -34.293182
v 53.864826 0.296558 -34.293182
v 53.864826 0.296558 -72.237457
v 15.324244 0.296558 -72.237457
v 53.864826 0.296558 -131.998657
v 15.324244 0.296558 -131.998657
v -27.898653 0.296558 -131.998657
v -27.898653 0.296558 -72.237457
v -61.603630 0.296558 34.255398
v -61.603630 0.296558 -34.293182
v 15.324243 0.296558 34.255398
v 53.864826 0.296558 34.255398
v 61.531082 0.296558 34.255398
v 61.531082 0.296558 -34.293182
v -61.603630 0.296558 -0.018892
v 15.324243 0.296558 -0.018892
v 53.864826 0.296558 -0.018892
v 61.531082 0.296558 -0.018892
v -61.603630 0.296558 17.118252
v 15.324243 0.296558 17.118252
v 53.864826 0.296558 17.118252
v 61.531082 0.296558 17.118252
v -61.603630 0.296558 -17.156036
v 15.324243 0.296558 -17.156036
v 53.864826 0.296558 -17.156036
v 61.531082 0.296558 -17.156036
v 53.864826 0.296558 -53.265320
v 15.324244 0.296558 -53.265320
v 53.864830 0.296558 -88.340538
v 15.324244 0.296558 -88.340538
v -27.898653 0.296558 -88.340538
v 53.864830 0.296558 -104.010277
v 15.324244 0.296558 -104.010277
v -27.898655 0.296558 -104.010277
v 53.864830 0.296558 -119.448807
v 15.324244 0.296558 -119.448807
v -27.898655 0.296558 -119.448807
v 42.085743 0.296558 -131.998657
v 42.085747 0.296558 -119.448807
v 42.085747 0.296558 -104.010277
v 42.085747 0.296558 -88.340538
v 42.085743 0.296558 -72.237457
v 42.085743 0.296558 -53.265320
v 42.085743 0.296558 -34.293182
v 42.085743 0.296558 -17.156036
v 42.085743 0.296558 -0.018892
v 42.085743 0.296558 17.118252
v 42.085743 0.296558 34.255398
v 28.040718 0.296558 -131.998657
v 28.040722 0.296558 -119.448807
v 28.040722 0.296558 -104.010277
v 28.040722 0.296558 -88.340538
v 28.040718 0.296558 -72.237457
v 28.040718 0.296558 -53.265320
v 28.040718 0.296558 -34.293182
v 28.040718 0.296558 -17.156036
v 28.040718 0.296558 -0.018892
v 28.040718 0.296558 17.118252
v 28.040718 0.296558 34.255398
v 2.034673 0.296558 -131.998657
v 2.034673 0.296558 -119.448807
v 2.034673 0.296558 -104.010269
v 2.034672 0.296558 -88.340538
v 2.034673 0.296558 -72.237457
v -11.996095 0.296558 -131.998657
v -11.996096 0.296558 -119.448807
v -11.996096 0.296558 -104.010269
v -11.996096 0.296558 -88.340538
v -11.996095 0.296558 -72.237457
v 3.339110 0.296558 34.255398
v 3.339110 0.296558 17.118252
v 3.339110 0.296558 -0.018892
v 3.339110 0.296558 -17.156036
v 3.339110 0.296558 -34.293182
v -9.307442 0.296558 34.255398
v -9.307442 0.296558 17.118252
v -9.307442 0.296558 -0.018892
v -9.307442 0.296558 -17.156036
v -9.307442 0.296558 -34.293182
v -21.819159 0.296558 34.255398
v -21.819159 0.296558 17.118252
v -21.819159 0.296558 -0.018892
v -21.819159 0.296558 -17.156036
v -34.606773 0.296558 34.255398
v -34.606773 0.296558 17.118252
v -34.606773 0.296558 -0.018892
v -34.606773 0.296558 -17.156036
v -48.084785 0.296558 34.255398
v -48.084785 0.296558 17.118252
v -48.084785 0.296558 -0.018892
v -48.084785 0.296558 -17.156036
v -48.084785 0.296558 -34.293182
vt 0.000000 0.000000
vt 0.000000 1.000000
vt 0.604673 0.000000
vt 0.604673 0.000000
vt 0.529949 0.000000
vt 0.529949 0.000000
vt 0.604673 0.000000
vt 0.529949 0.000000
vt 0.529949 0.000000
vt 0.529949 0.000000
vt 0.000000 0.000000
vt 1.000000 0.000000
vt 1.000000 1.000000
vt 0.000000 1.000000
vt 1.000000 0.000000
vt 1.000000 1.000000
vt 1.000000 0.000000
vt 1.000000 1.000000
vt 0.000000 1.000000
vt 0.000000 0.000000
vt 0.500000 0.000000
vt 0.500000 1.000000
vt 0.500000 0.000000
vt 0.500000 1.000000
vt 0.500000 0.000000
vt 0.500000 1.000000
vt 0.750000 0.000000
vt 0.750000 1.000000
vt 0.750000 0.000000
vt 0.750000 1.000000
vt 0.750000 0.000000
vt 0.750000 1.000000
vt 0.250000 0.000000
vt 0.250000 1.000000
vt 0.250000 0.000000
vt 0.250000 1.000000
vt 0.250000 0.000000
vt 0.250000 1.000000
vt 0.604673 0.000000
vt 0.529949 0.000000
vt 0.604673 0.000000
vt 0.529949 0.000000
vt 0.529949 0.000000
vt 0.604673 0.000000
vt 0.529949 0.000000
vt 0.529949 0.000000
vt 0.604673 0.000000
vt 0.529949 0.000000
vt 0.529949 0.000000
vt 0.581835 0.000000
vt 0.581835 0.000000
vt 0.581835 0.000000
vt 0.581835 0.000000
vt 0.581835 0.000000
vt 0.581835 0.000000
vt 0.581835 0.000000
vt 0.000000 0.694372
vt 0.250000 0.694372
vt 0.500000 0.694372
vt 0.750000 0.694372
vt 1.000000 0.694372
vt 0.554604 0.000000
vt 0.554604 0.000000
vt 0.554604 0.000000
vt 0.554604 0.000000
vt 0.554604 0.000000
vt 0.554604 0.000000
vt 0.554604 0.000000
vt 0.000000 0.329950
vt 0.250000 0.329950
vt 0.500000 0.329950
vt 0.750000 0.329950
vt 1.000000 0.329950
vt 0.529949 0.000000
vt 0.529949 0.000000
vt 0.529949 0.000000
vt 0.529949 0.000000
vt 0.529949 0.000000
vt 0.529949 0.000000
vt 0.529949 0.000000
vt 0.529949 0.000000
vt 0.529949 0.000000
vt 0.529949 0.000000
vt 1.000000 0.844203
vt 0.750000 0.844203
vt 0.500000 0.844203
vt 0.250000 0.844203
vt 0.000000 0.844203
vt 1.000000 0.683387
vt 0.750000 0.683387
vt 0.500000 0.683387
vt 0.250000 0.683387
vt 0.000000 0.683387
vt 1.000000 0.531447
vt 0.750000 0.531447
vt 0.500000 0.531447
vt 0.250000 0.531447
vt 1.000000 0.368822
vt 0.750000 0.368822
vt 0.500000 0.368822
vt 0.250000 0.368822
vt 1.000000 0.202547
vt 0.750000 0.202547
vt 0.500000 0.202547
vt 0.250000 0.202547
vt 0.000000 0.202547
vn 0.000000 1.000000 0.000000
vn 0.000000 1.000000 0.000000
vn 0.000000 1.000000 0.000000
vn 0.000000 1.000000 0.000000
vn 0.000000 1.000000 -0.000000
vn 0.000000 1.000000 0.000000
vn 0.000000 1.000000 0.000000
vn 0.000000 1.000000 0.000000
vn -0.000000 1.000000 -0.000000
vn -0.000000 1.000000 0.000000
vn -0.000000 1.000000 -0.000000
vn -0.000000 1.000000 0.000000
vn 0.000000 1.000000 0.000000
vn 0.000000 1.000000 0.000000
vn 0.000000 1.000000 0.000000
vn 0.000000 1.000000 0.000000
vn 0.000000 1.000000 0.000000
vn 0.000000 1.000000 0.000000
vn 0.000000 1.000000 0.000000
vn 0.000000 1.000000 0.000000
vn 0.000000 1.000000 0.000000
vn 0.000000 1.000000 0.000000
vn 0.000000 1.000000 0.000000
vn 0.000000 1.000000 0.000000
vn 0.000000 1.000000 0.000000
vn 0.000000 1.000000 0.000000
vn 0.000000 1.000000 0.000000
vn 0.000000 1.000000 0.000000
vn 0.000000 1.000000 0.000000
vn 0.000000 1.000000 0.000000
vn 0.000000 1.000000 0.000000
vn 0.000000 1.000000 0.000000
vn 0.000000 1.000000 0.000000
vn 0.000000 1.000000 0.000000
vn 0.000000 1.000000 0.000000
vn 0.000000 1.000000 0.000000
vn 0.000000 1.000000 0.000000
vn 0.000000 1.000000 0.000000
vn 0.000000 1.000000 0.000000
vn -0.000000 1.000000 -0.000000
vn -0.000000 1.000000 -0.000000
vn 0.000000 1.000000 0.000000
vn 0.000000 1.000000 -0.000000
vn -0.000000 1.000000 0.000000
vn -0.000000 1.000000 0.000000
vn 0.000000 1.000000 0.000000
vn 0.000000 1.000000 -0.000000
vn -0.000000 1.000000 0.000000
vn -0.000000 1.000000 0.000000
vn 0.000000 1.000000 0.000000
vn 0.000000 1.000000 0.000000
vn 0.000000 1.000000 0.000000
vn 0.000000 1.000000 -0.000000
vn 0.000000 1.000000 -0.000000
vn 0.000000 1.000000 0.000000
vn 0.000000 1.000000 0.000000
vn 0.000000 1.000000 0.000000
vn 0.000000 1.000000 0.000000
vn 0.000000 1.000000 0.000000
vn 0.000000 1.000000 0.000000
vn 0.000000 1.000000 0.000000
vn 0.000000 1.000000 0.000000
vn 0.000000 1.000000 0.000000
vn 0.000000 1.000000 0.000000
vn 0.000000 1.000000 0.000000
vn 0.000000 1.000000 0.000000
vn 0.000000 1.000000 0.000000
vn 0.000000 1.000000 0.000000
vn 0.000000 1.000000 -0.000000
vn 0.000000 1.000000 -0.000000
vn 0.000000 1.000000 0.000000
vn 0.000000 1.000000 0.000000
vn 0.000000 1.000000 0.000000
vn 0.000000 1.000000 0.000000
vn 0.000000 1.000000 -0.000000
vn 0.000000 1.000000 -0.000000
vn 0.000000 1.000000 -0.000000
vn 0.000000 1.000000 0.000000
vn 0.000000 1.000000 0.000000
vn 0.000000 1.000000 0.000000
vn 0.000000 1.000000 0.000000
vn 0.000000 1.000000 0.000000
vn 0.000000 1.000000 0.000000
vn 0.000000 1.000000 0.000000
vn 0.000000 1.000000 0.000000
vn 0.000000 1.000000 0.000000
vn 0.000000 1.000000 0.000000
vn 0.000000 1.000000 0.000000
vn 0.000000 1.000000 0.000000
vn 0.000000 1.000000 0.000000
vn 0.000000 1.000000 0.000000
vn 0.000000 1.000000 0.000000
vn 0.000000 1.000000 0.000000
vn 0.000000 1.000000 0.000000
vn 0.000000 1.000000 0.000000
vn 0.000000 1.000000 0.000000
s 1
g polySurface2
usemtl _test_scene:lambert2SG
f 43/55/1 44/56/2 27/39/3
f 27/39/3 44/56/2 2/3/4
f 41/53/5 42/54/6 29/41/7
f 29/41/7 42/54/6 3/4/8
f 4/5/9 30/42/10 64/78/11
f 64/78/11 30/42/10 63/77/12
s 4
f 10/11/13 23/33/14 92/106/15
f 92/106/15 23/33/14 91/105/16
f 44/57/17 45/58/18 2/2/19
f 2/2/19 45/58/18 25/36/20
f 2/20/19 25/37/20 14/19/21
f 14/19/21 25/37/20 26/38/22
f 89/103/23 90/104/24 19/27/25
f 19/27/25 90/104/24 15/21/26
f 17/24/27 46/59/28 21/30/29
f 21/30/29 46/59/28 47/60/30
f 18/26/31 17/25/27 22/32/32
f 22/32/32 17/25/27 21/31/29
f 88/102/33 89/103/23 9/12/34
f 9/12/34 89/103/23 19/27/25
f 21/30/29 47/60/30 12/16/35
f 12/16/35 47/60/30 48/61/36
f 22/32/32 21/31/29 13/18/37
f 13/18/37 21/31/29 12/17/35
f 90/104/24 91/105/16 15/21/26
f 15/21/26 91/105/16 23/33/14
f 25/36/20 45/58/18 17/24/27
f 17/24/27 45/58/18 46/59/28
f 26/38/22 25/37/20 18/26/31
f 18/26/31 25/37/20 17/25/27
s 1
f 42/54/6 43/55/1 3/4/8
f 3/4/8 43/55/1 27/39/3
f 40/52/38 41/53/5 32/44/39
f 32/44/39 41/53/5 29/41/7
f 62/76/40 63/77/12 33/45/41
f 33/45/41 63/77/12 30/42/10
f 39/51/42 40/52/38 35/47/43
f 35/47/43 40/52/38 32/44/39
f 61/75/44 62/76/40 36/48/45
f 36/48/45 62/76/40 33/45/41
f 38/50/46 39/51/42 5/7/47
f 5/7/47 39/51/42 35/47/43
f 60/74/48 61/75/44 6/8/49
f 6/8/49 61/75/44 36/48/45
f 49/62/50 50/63/51 38/50/46
f 38/50/46 50/63/51 39/51/42
f 50/63/51 51/64/52 39/51/42
f 39/51/42 51/64/52 40/52/38
f 51/64/52 52/65/53 40/52/38
f 40/52/38 52/65/53 41/53/5
f 52/65/53 53/66/54 41/53/5
f 41/53/5 53/66/54 42/54/6
f 53/66/54 54/67/55 42/54/6
f 42/54/6 54/67/55 43/55/1
f 54/67/55 55/68/56 43/55/1
f 43/55/1 55/68/56 44/56/2
s 4
f 55/69/57 56/70/58 44/57/17
f 44/57/17 56/70/58 45/58/18
f 46/59/28 45/58/18 57/71/59
f 57/71/59 45/58/18 56/70/58
f 47/60/30 46/59/28 58/72/60
f 58/72/60 46/59/28 57/71/59
f 48/61/36 47/60/30 59/73/61
f 59/73/61 47/60/30 58/72/60
s 1
f 36/48/45 50/63/51 6/8/49
f 6/8/49 50/63/51 49/62/50
f 33/45/41 51/64/52 36/48/45
f 36/48/45 51/64/52 50/63/51
f 30/42/10 52/65/53 33/45/41
f 33/45/41 52/65/53 51/64/52
f 4/5/9 53/66/54 30/42/10
f 30/42/10 53/66/54 52/65/53
f 28/40/62 54/67/55 4/5/9
f 4/5/9 54/67/55 53/66/54
f 1/6/63 55/68/56 28/40/62
f 28/40/62 55/68/56 54/67/55
s 4
f 1/1/64 24/35/65 55/69/57
f 55/69/57 24/35/65 56/70/58
f 57/71/59 56/70/58 16/23/66
f 16/23/66 56/70/58 24/35/65
f 58/72/60 57/71/59 20/29/67
f 20/29/67 57/71/59 16/23/66
f 59/73/61 58/72/60 11/15/68
f 11/15/68 58/72/60 20/29/67
s 1
f 65/79/69 66/80/70 60/74/48
f 60/74/48 66/80/70 61/75/44
f 66/80/70 67/81/71 61/75/44
f 61/75/44 67/81/71 62/76/40
f 67/81/71 68/82/72 62/76/40
f 62/76/40 68/82/72 63/77/12
f 64/78/11 63/77/12 69/83/73
f 69/83/73 63/77/12 68/82/72
f 37/49/74 66/80/70 7/9/75
f 7/9/75 66/80/70 65/79/69
f 34/46/76 67/81/71 37/49/74
f 37/49/74 67/81/71 66/80/70
f 31/43/77 68/82/72 34/46/76
f 34/46/76 68/82/72 67/81/71
f 69/83/73 68/82/72 8/10/78
f 8/10/78 68/82/72 31/43/77
s 4
f 20/28/67 71/85/79 11/13/68
f 11/13/68 71/85/79 70/84/80
f 16/22/66 72/86/81 20/28/67
f 20/28/67 72/86/81 71/85/79
f 24/34/65 73/87/82 16/22/66
f 16/22/66 73/87/82 72/86/81
f 74/88/83 73/87/82 1/14/64
f 1/14/64 73/87/82 24/34/65
f 70/84/80 71/85/79 75/89/84
f 75/89/84 71/85/79 76/90/85
f 71/85/79 72/86/81 76/90/85
f 76/90/85 72/86/81 77/91/86
f 72/86/81 73/87/82 77/91/86
f 77/91/86 73/87/82 78/92/87
f 79/93/88 78/92/87 74/88/83
f 74/88/83 78/92/87 73/87/82
f 75/89/84 76/90/85 80/94/89
f 80/94/89 76/90/85 81/95/90
f 76/90/85 77/91/86 81/95/90
f 81/95/90 77/91/86 82/96/91
f 77/91/86 78/92/87 82/96/91
f 82/96/91 78/92/87 83/97/92
f 80/94/89 81/95/90 84/98/93
f 84/98/93 81/95/90 85/99/94
f 81/95/90 82/96/91 85/99/94
f 85/99/94 82/96/91 86/100/95
f 82/96/91 83/97/92 86/100/95
f 86/100/95 83/97/92 87/101/96
f 84/98/93 85/99/94 88/102/33
f 88/102/33 85/99/94 89/103/23
f 85/99/94 86/100/95 89/103/23
f 89/103/23 86/100/95 90/104/24
f 86/100/95 87/101/96 90/104/24
f 90/104/24 87/101/96 91/105/16
